<svg xmlns="http://www.w3.org/2000/svg" xlink="http://www.w3.org/1999/xlink" width="0" height="0" style="display:none;"><symbol viewBox="0 0 24 24" id="timer-line"><path fill="none" d="M0 0h24v24H0z"/><path d="M17.618 5.968l1.453-1.453 1.414 1.414-1.453 1.453a9 9 0 1 1-1.414-1.414zM12 20a7 7 0 1 0 0-14 7 7 0 0 0 0 14zM11 8h2v6h-2V8zM8 1h8v2H8V1z"/></symbol><symbol viewBox="0 0 24 24" id="information-line"><path fill="none" d="M0 0h24v24H0z"/><path d="M12 22C6.477 22 2 17.523 2 12S6.477 2 12 2s10 4.477 10 10-4.477 10-10 10zm0-2a8 8 0 1 0 0-16 8 8 0 0 0 0 16zM11 7h2v2h-2V7zm0 4h2v6h-2v-6z"/></symbol><symbol viewBox="0 0 24 24" id="wallet-line"><path fill="none" d="M0 0h24v24H0z"/><path d="M18 7h3a1 1 0 0 1 1 1v12a1 1 0 0 1-1 1H3a1 1 0 0 1-1-1V4a1 1 0 0 1 1-1h15v4zM4 9v10h16V9H4zm0-4v2h12V5H4zm11 8h3v2h-3v-2z"/></symbol><symbol viewBox="0 0 24 24" id="folder-user-line"><path fill="none" d="M0 0h24v24H0z"/><path d="M12.414 5H21a1 1 0 0 1 1 1v14a1 1 0 0 1-1 1H3a1 1 0 0 1-1-1V4a1 1 0 0 1 1-1h7.414l2 2zM4 5v14h16V7h-8.414l-2-2H4zm4 13a4 4 0 1 1 8 0H8zm4-5a2.5 2.5 0 1 1 0-5 2.5 2.5 0 0 1 0 5z"/></symbol><symbol viewBox="0 0 24 24" id="account-box-line"><path fill="none" d="M0 0h24v24H0z"/><path d="M3 4.995C3 3.893 3.893 3 4.995 3h14.01C20.107 3 21 3.893 21 4.995v14.01A1.995 1.995 0 0 1 19.005 21H4.995A1.995 1.995 0 0 1 3 19.005V4.995zM5 5v14h14V5H5zm2.972 13.18a9.983 9.983 0 0 1-1.751-.978A6.994 6.994 0 0 1 12.102 14c2.4 0 4.517 1.207 5.778 3.047a9.995 9.995 0 0 1-1.724 1.025A4.993 4.993 0 0 0 12.102 16c-1.715 0-3.23.864-4.13 2.18zM12 13a3.5 3.5 0 1 1 0-7 3.5 3.5 0 0 1 0 7zm0-2a1.5 1.5 0 1 0 0-3 1.5 1.5 0 0 0 0 3z"/></symbol><symbol viewBox="0 0 24 24" id="archive-line"><path fill="none" d="M0 0h24v24H0z"/><path d="M3 10H2V4.003C2 3.449 2.455 3 2.992 3h18.016A.99.99 0 0 1 22 4.003V10h-1v10.001a.996.996 0 0 1-.993.999H3.993A.996.996 0 0 1 3 20.001V10zm16 0H5v9h14v-9zM4 5v3h16V5H4zm5 7h6v2H9v-2z"/></symbol><symbol viewBox="0 0 24 24" id="notification-line"><path fill="none" d="M0 0h24v24H0z"/><path d="M5 18h14v-6.969C19 7.148 15.866 4 12 4s-7 3.148-7 7.031V18zm7-16c4.97 0 9 4.043 9 9.031V20H3v-8.969C3 6.043 7.03 2 12 2zM9.5 21h5a2.5 2.5 0 1 1-5 0z"/></symbol><symbol viewBox="0 0 24 24" id="feedback-line"><path fill="none" d="M0 0h24v24H0z"/><path d="M6.455 19L2 22.5V4a1 1 0 0 1 1-1h18a1 1 0 0 1 1 1v14a1 1 0 0 1-1 1H6.455zM4 18.385L5.763 17H20V5H4v13.385zM11 13h2v2h-2v-2zm0-6h2v5h-2V7z"/></symbol><symbol viewBox="0 0 24 24" id="bar-chart-box-line"><path fill="none" d="M0 0h24v24H0z"/><path d="M3 3h18a1 1 0 0 1 1 1v16a1 1 0 0 1-1 1H3a1 1 0 0 1-1-1V4a1 1 0 0 1 1-1zm1 2v14h16V5H4zm3 8h2v4H7v-4zm4-6h2v10h-2V7zm4 3h2v7h-2v-7z"/></symbol><symbol viewBox="0 0 24 24" id="double-quotes-l"><path fill="none" d="M0 0h24v24H0z"/><path d="M4.583 17.321C3.553 16.227 3 15 3 13.011c0-3.5 2.457-6.637 6.03-8.188l.893 1.378c-3.335 1.804-3.987 4.145-4.247 5.621.537-.278 1.24-.375 1.929-.311 1.804.167 3.226 1.648 3.226 3.489a3.5 3.5 0 0 1-3.5 3.5c-1.073 0-2.099-.49-2.748-1.179zm10 0C13.553 16.227 13 15 13 13.011c0-3.5 2.457-6.637 6.03-8.188l.893 1.378c-3.335 1.804-3.987 4.145-4.247 5.621.537-.278 1.24-.375 1.929-.311 1.804.167 3.226 1.648 3.226 3.489a3.5 3.5 0 0 1-3.5 3.5c-1.073 0-2.099-.49-2.748-1.179z"/></symbol><symbol viewBox="0 0 24 24" id="double-quotes-r"><path fill="none" d="M0 0h24v24H0z"/><path d="M19.417 6.679C20.447 7.773 21 9 21 10.989c0 3.5-2.457 6.637-6.03 8.188l-.893-1.378c3.335-1.804 3.987-4.145 4.247-5.621-.537.278-1.24.375-1.929.311-1.804-.167-3.226-1.648-3.226-3.489a3.5 3.5 0 0 1 3.5-3.5c1.073 0 2.099.49 2.748 1.179zm-10 0C10.447 7.773 11 9 11 10.989c0 3.5-2.457 6.637-6.03 8.188l-.893-1.378c3.335-1.804 3.987-4.145 4.247-5.621-.537.278-1.24.375-1.929.311C4.591 12.322 3.17 10.841 3.17 9a3.5 3.5 0 0 1 3.5-3.5c1.073 0 2.099.49 2.748 1.179z"/></symbol><symbol viewBox="0 0 24 24" id="exchange-dollar-line"><path fill="none" d="M0 0h24v24H0z"/><path d="M19.375 15.103A8.001 8.001 0 0 0 8.03 5.053l-.992-1.737A9.996 9.996 0 0 1 17 3.34c4.49 2.592 6.21 8.142 4.117 12.77l1.342.774-4.165 2.214-.165-4.714 1.246.719zM4.625 8.897a8.001 8.001 0 0 0 11.345 10.05l.992 1.737A9.996 9.996 0 0 1 7 20.66C2.51 18.068.79 12.518 2.883 7.89L1.54 7.117l4.165-2.214.165 4.714-1.246-.719zM8.5 14H14a.5.5 0 1 0 0-1h-4a2.5 2.5 0 1 1 0-5h1V7h2v1h2.5v2H10a.5.5 0 1 0 0 1h4a2.5 2.5 0 1 1 0 5h-1v1h-2v-1H8.5v-2z"/></symbol><symbol viewBox="0 0 24 24" id="exchange-box-line"><path fill="none" d="M0 0h24v24H0z"/><path d="M4 5v14h16V5H4zM3 3h18a1 1 0 0 1 1 1v16a1 1 0 0 1-1 1H3a1 1 0 0 1-1-1V4a1 1 0 0 1 1-1zm9 6V6l5 5H8V9h4zm-5 4h9v2h-4v3l-5-5z"/></symbol><symbol viewBox="0 0 24 24" id="exchange-line"><path fill="none" d="M0 0h24v24H0z"/><path d="M12 22C6.477 22 2 17.523 2 12S6.477 2 12 2s10 4.477 10 10-4.477 10-10 10zm0-2a8 8 0 1 0 0-16 8 8 0 0 0 0 16zm-5-7h9v2h-4v3l-5-5zm5-4V6l5 5H8V9h4z"/></symbol><symbol viewBox="0 0 24 24" id="funds-line"><path fill="none" d="M0 0h24v24H0z"/><path d="M4.406 14.523l3.402-3.402 2.828 2.829 3.157-3.157L12 9h5v5l-1.793-1.793-4.571 4.571-2.828-2.828-2.475 2.474a8 8 0 1 0-.927-1.9zm-1.538 1.558l-.01-.01.004-.004A9.965 9.965 0 0 1 2 12C2 6.477 6.477 2 12 2s10 4.477 10 10-4.477 10-10 10c-4.07 0-7.57-2.43-9.132-5.919z"/></symbol><symbol viewBox="0 0 24 24" id="stock-line"><path fill="none" d="M0 0h24v24H0z"/><path d="M8 5h3v9H8v3H6v-3H3V5h3V2h2v3zM5 7v5h4V7H5zm13 3h3v9h-3v3h-2v-3h-3v-9h3V7h2v3zm-3 2v5h4v-5h-4z"/></symbol><symbol viewBox="0 0 24 24" id="funds-box-line"><path fill="none" d="M0 0h24v24H0z"/><path d="M4 5v14h16V5H4zM3 3h18a1 1 0 0 1 1 1v16a1 1 0 0 1-1 1H3a1 1 0 0 1-1-1V4a1 1 0 0 1 1-1zm11.793 6.793L13 8h5v5l-1.793-1.793-3.864 3.864-2.121-2.121-2.829 2.828-1.414-1.414 4.243-4.243 2.121 2.122 2.45-2.45z"/></symbol><symbol viewBox="0 0 24 24" id="group-line"><path fill="none" d="M0 0h24v24H0z"/><path d="M2 22a8 8 0 1 1 16 0h-2a6 6 0 1 0-12 0H2zm8-9c-3.315 0-6-2.685-6-6s2.685-6 6-6 6 2.685 6 6-2.685 6-6 6zm0-2c2.21 0 4-1.79 4-4s-1.79-4-4-4-4 1.79-4 4 1.79 4 4 4zm8.284 3.703A8.002 8.002 0 0 1 23 22h-2a6.001 6.001 0 0 0-3.537-5.473l.82-1.824zm-.688-11.29A5.5 5.5 0 0 1 21 8.5a5.499 5.499 0 0 1-5 5.478v-2.013a3.5 3.5 0 0 0 1.041-6.609l.555-1.943z"/></symbol><symbol viewBox="0 0 24 24" id="wallet-fill"><path fill="none" d="M0 0h24v24H0z"/><path d="M2 9h19a1 1 0 0 1 1 1v10a1 1 0 0 1-1 1H3a1 1 0 0 1-1-1V9zm1-6h15v4H2V4a1 1 0 0 1 1-1zm12 11v2h3v-2h-3z"/></symbol><symbol viewBox="0 0 24 24" id="edit-line"><path fill="none" d="M0 0h24v24H0z"/><path d="M6.414 16L16.556 5.858l-1.414-1.414L5 14.586V16h1.414zm.829 2H3v-4.243L14.435 2.322a1 1 0 0 1 1.414 0l2.829 2.829a1 1 0 0 1 0 1.414L7.243 18zM3 20h18v2H3v-2z"/></symbol><symbol viewBox="0 0 24 24" id="search-line"><path fill="none" d="M0 0h24v24H0z"/><path d="M18.031 16.617l4.283 4.282-1.415 1.415-4.282-4.283A8.96 8.96 0 0 1 11 20c-4.968 0-9-4.032-9-9s4.032-9 9-9 9 4.032 9 9a8.96 8.96 0 0 1-1.969 5.617zm-2.006-.742A6.977 6.977 0 0 0 18 11c0-3.868-3.133-7-7-7-3.868 0-7 3.132-7 7 0 3.867 3.132 7 7 7a6.977 6.977 0 0 0 4.875-1.975l.15-.15z"/></symbol><symbol viewBox="0 0 24 24" id="notification-3-line"><path fill="none" d="M0 0h24v24H0z"/><path d="M20 17h2v2H2v-2h2v-7a8 8 0 1 1 16 0v7zm-2 0v-7a6 6 0 1 0-12 0v7h12zm-9 4h6v2H9v-2z"/></symbol><symbol viewBox="0 0 24 24" id="play-fill"><path fill="none" d="M0 0h24v24H0z"/><path d="M19.376 12.416L8.777 19.482A.5.5 0 0 1 8 19.066V4.934a.5.5 0 0 1 .777-.416l10.599 7.066a.5.5 0 0 1 0 .832z"/></symbol><symbol viewBox="0 0 24 24" id="account-box-fill"><path fill="none" d="M0 0h24v24H0z"/><path d="M3 4.995C3 3.893 3.893 3 4.995 3h14.01C20.107 3 21 3.893 21 4.995v14.01A1.995 1.995 0 0 1 19.005 21H4.995A1.995 1.995 0 0 1 3 19.005V4.995zM6.357 18h11.49a6.992 6.992 0 0 0-5.745-3 6.992 6.992 0 0 0-5.745 3zM12 13a3.5 3.5 0 1 0 0-7 3.5 3.5 0 0 0 0 7z"/></symbol><symbol viewBox="0 0 24 24" id="edit-box-line"><path fill="none" d="M0 0h24v24H0z"/><path d="M16.757 3l-2 2H5v14h14V9.243l2-2V20a1 1 0 0 1-1 1H4a1 1 0 0 1-1-1V4a1 1 0 0 1 1-1h12.757zm3.728-.9L21.9 3.516l-9.192 9.192-1.412.003-.002-1.417L20.485 2.1z"/></symbol><symbol viewBox="0 0 24 24" id="alarm-warning-line"><path fill="none" d="M0 0h24v24H0z"/><path d="M4 20v-6a8 8 0 1 1 16 0v6h1v2H3v-2h1zm2 0h12v-6a6 6 0 1 0-12 0v6zm5-18h2v3h-2V2zm8.778 2.808l1.414 1.414-2.12 2.121-1.415-1.414 2.121-2.121zM2.808 6.222l1.414-1.414 2.121 2.12L4.93 8.344 2.808 6.222zM7 14a5 5 0 0 1 5-5v2a3 3 0 0 0-3 3H7z"/></symbol><symbol viewBox="0 0 24 24" id="settings-5-fill"><path fill="none" d="M0 0h24v24H0z"/><path d="M2.132 13.63a9.942 9.942 0 0 1 0-3.26c1.102.026 2.092-.502 2.477-1.431.385-.93.058-2.004-.74-2.763a9.942 9.942 0 0 1 2.306-2.307c.76.798 1.834 1.125 2.764.74.93-.385 1.457-1.376 1.43-2.477a9.942 9.942 0 0 1 3.262 0c-.027 1.102.501 2.092 1.43 2.477.93.385 2.004.058 2.763-.74a9.942 9.942 0 0 1 2.307 2.306c-.798.76-1.125 1.834-.74 2.764.385.93 1.376 1.457 2.477 1.43a9.942 9.942 0 0 1 0 3.262c-1.102-.027-2.092.501-2.477 1.43-.385.93-.058 2.004.74 2.763a9.942 9.942 0 0 1-2.306 2.307c-.76-.798-1.834-1.125-2.764-.74-.93.385-1.457 1.376-1.43 2.477a9.942 9.942 0 0 1-3.262 0c.027-1.102-.501-2.092-1.43-2.477-.93-.385-2.004-.058-2.763.74a9.942 9.942 0 0 1-2.307-2.306c.798-.76 1.125-1.834.74-2.764-.385-.93-1.376-1.457-2.477-1.43zM12 15a3 3 0 1 0 0-6 3 3 0 0 0 0 6z"/></symbol><symbol viewBox="0 0 24 24" id="error-warning-line"><path fill="none" d="M0 0h24v24H0z"/><path d="M12 22C6.477 22 2 17.523 2 12S6.477 2 12 2s10 4.477 10 10-4.477 10-10 10zm0-2a8 8 0 1 0 0-16 8 8 0 0 0 0 16zm-1-5h2v2h-2v-2zm0-8h2v6h-2V7z"/></symbol><symbol viewBox="0 0 24 24" id="trophy-line"><path fill="none" d="M0 0h24v24H0z"/><path d="M13 16.938V19h5v2H6v-2h5v-2.062A8.001 8.001 0 0 1 4 9V3h16v6a8.001 8.001 0 0 1-7 7.938zM6 5v4a6 6 0 1 0 12 0V5H6zM1 5h2v4H1V5zm20 0h2v4h-2V5z"/></symbol><symbol viewBox="0 0 24 24" id="group-2-line"><path fill="none" d="M0 0h24v24H0z"/><path d="M9.55 11.5a2.25 2.25 0 1 1 0-4.5 2.25 2.25 0 0 1 0 4.5zm.45 8.248V16.4c0-.488.144-.937.404-1.338a6.473 6.473 0 0 0-5.033 1.417A8.012 8.012 0 0 0 10 19.749zM4.453 14.66A8.462 8.462 0 0 1 9.5 13c1.043 0 2.043.188 2.967.532.878-.343 1.925-.532 3.033-.532 1.66 0 3.185.424 4.206 1.156a8 8 0 1 0-15.253.504zm14.426 1.426C18.486 15.553 17.171 15 15.5 15c-2.006 0-3.5.797-3.5 1.4V20a7.996 7.996 0 0 0 6.88-3.914zM12 22C6.477 22 2 17.523 2 12S6.477 2 12 2s10 4.477 10 10-4.477 10-10 10zm3.5-9.5a2 2 0 1 1 0-4 2 2 0 0 1 0 4z"/></symbol></svg>